<svg xmlns="http://www.w3.org/2000/svg" xmlns:xlink="http://www.w3.org/1999/xlink" width="506" height="382" viewBox="0 0 506 382">
  <defs>
    <clipPath id="clip-path">
      <rect width="506" height="382" fill="none"/>
    </clipPath>
  </defs>
  <g id="Repeat_Grid_1" data-name="Repeat Grid 1" clip-path="url(#clip-path)">
    <g transform="translate(-14090 -3944)">
      <circle id="Ellipse_726" data-name="Ellipse 726" cx="7.5" cy="7.5" r="7.5" transform="translate(14090 3944)" fill="#707070"/>
    </g>
    <g transform="translate(-14030 -3944)">
      <circle id="Ellipse_726-2" data-name="Ellipse 726" cx="7.5" cy="7.5" r="7.5" transform="translate(14090 3944)" fill="#707070"/>
    </g>
    <g transform="translate(-13970 -3944)">
      <circle id="Ellipse_726-3" data-name="Ellipse 726" cx="7.5" cy="7.5" r="7.5" transform="translate(14090 3944)" fill="#707070"/>
    </g>
    <g transform="translate(-13910 -3944)">
      <circle id="Ellipse_726-4" data-name="Ellipse 726" cx="7.5" cy="7.5" r="7.5" transform="translate(14090 3944)" fill="#707070"/>
    </g>
    <g transform="translate(-13850 -3944)">
      <circle id="Ellipse_726-5" data-name="Ellipse 726" cx="7.5" cy="7.5" r="7.5" transform="translate(14090 3944)" fill="#707070"/>
    </g>
    <g transform="translate(-13790 -3944)">
      <circle id="Ellipse_726-6" data-name="Ellipse 726" cx="7.5" cy="7.5" r="7.5" transform="translate(14090 3944)" fill="#707070"/>
    </g>
    <g transform="translate(-13730 -3944)">
      <circle id="Ellipse_726-7" data-name="Ellipse 726" cx="7.5" cy="7.5" r="7.5" transform="translate(14090 3944)" fill="#707070"/>
    </g>
    <g transform="translate(-13670 -3944)">
      <circle id="Ellipse_726-8" data-name="Ellipse 726" cx="7.5" cy="7.5" r="7.5" transform="translate(14090 3944)" fill="#707070"/>
    </g>
    <g transform="translate(-13610 -3944)">
      <circle id="Ellipse_726-9" data-name="Ellipse 726" cx="7.5" cy="7.5" r="7.5" transform="translate(14090 3944)" fill="#707070"/>
    </g>
    <g transform="translate(-14090 -3884)">
      <circle id="Ellipse_726-10" data-name="Ellipse 726" cx="7.5" cy="7.5" r="7.5" transform="translate(14090 3944)" fill="#707070"/>
    </g>
    <g transform="translate(-14030 -3884)">
      <circle id="Ellipse_726-11" data-name="Ellipse 726" cx="7.5" cy="7.5" r="7.5" transform="translate(14090 3944)" fill="#707070"/>
    </g>
    <g transform="translate(-13970 -3884)">
      <circle id="Ellipse_726-12" data-name="Ellipse 726" cx="7.5" cy="7.5" r="7.5" transform="translate(14090 3944)" fill="#707070"/>
    </g>
    <g transform="translate(-13910 -3884)">
      <circle id="Ellipse_726-13" data-name="Ellipse 726" cx="7.5" cy="7.5" r="7.5" transform="translate(14090 3944)" fill="#707070"/>
    </g>
    <g transform="translate(-13850 -3884)">
      <circle id="Ellipse_726-14" data-name="Ellipse 726" cx="7.5" cy="7.5" r="7.5" transform="translate(14090 3944)" fill="#707070"/>
    </g>
    <g transform="translate(-13790 -3884)">
      <circle id="Ellipse_726-15" data-name="Ellipse 726" cx="7.5" cy="7.5" r="7.5" transform="translate(14090 3944)" fill="#707070"/>
    </g>
    <g transform="translate(-13730 -3884)">
      <circle id="Ellipse_726-16" data-name="Ellipse 726" cx="7.5" cy="7.5" r="7.5" transform="translate(14090 3944)" fill="#707070"/>
    </g>
    <g transform="translate(-13670 -3884)">
      <circle id="Ellipse_726-17" data-name="Ellipse 726" cx="7.5" cy="7.5" r="7.5" transform="translate(14090 3944)" fill="#707070"/>
    </g>
    <g transform="translate(-13610 -3884)">
      <circle id="Ellipse_726-18" data-name="Ellipse 726" cx="7.5" cy="7.5" r="7.5" transform="translate(14090 3944)" fill="#707070"/>
    </g>
    <g transform="translate(-14090 -3824)">
      <circle id="Ellipse_726-19" data-name="Ellipse 726" cx="7.5" cy="7.5" r="7.5" transform="translate(14090 3944)" fill="#707070"/>
    </g>
    <g transform="translate(-14030 -3824)">
      <circle id="Ellipse_726-20" data-name="Ellipse 726" cx="7.5" cy="7.5" r="7.5" transform="translate(14090 3944)" fill="#707070"/>
    </g>
    <g transform="translate(-13970 -3824)">
      <circle id="Ellipse_726-21" data-name="Ellipse 726" cx="7.5" cy="7.5" r="7.5" transform="translate(14090 3944)" fill="#707070"/>
    </g>
    <g transform="translate(-13910 -3824)">
      <circle id="Ellipse_726-22" data-name="Ellipse 726" cx="7.5" cy="7.5" r="7.5" transform="translate(14090 3944)" fill="#707070"/>
    </g>
    <g transform="translate(-13850 -3824)">
      <circle id="Ellipse_726-23" data-name="Ellipse 726" cx="7.5" cy="7.5" r="7.5" transform="translate(14090 3944)" fill="#707070"/>
    </g>
    <g transform="translate(-13790 -3824)">
      <circle id="Ellipse_726-24" data-name="Ellipse 726" cx="7.5" cy="7.5" r="7.5" transform="translate(14090 3944)" fill="#707070"/>
    </g>
    <g transform="translate(-13730 -3824)">
      <circle id="Ellipse_726-25" data-name="Ellipse 726" cx="7.5" cy="7.5" r="7.5" transform="translate(14090 3944)" fill="#707070"/>
    </g>
    <g transform="translate(-13670 -3824)">
      <circle id="Ellipse_726-26" data-name="Ellipse 726" cx="7.5" cy="7.5" r="7.5" transform="translate(14090 3944)" fill="#707070"/>
    </g>
    <g transform="translate(-13610 -3824)">
      <circle id="Ellipse_726-27" data-name="Ellipse 726" cx="7.5" cy="7.5" r="7.5" transform="translate(14090 3944)" fill="#707070"/>
    </g>
    <g transform="translate(-14090 -3764)">
      <circle id="Ellipse_726-28" data-name="Ellipse 726" cx="7.5" cy="7.5" r="7.5" transform="translate(14090 3944)" fill="#707070"/>
    </g>
    <g transform="translate(-14030 -3764)">
      <circle id="Ellipse_726-29" data-name="Ellipse 726" cx="7.5" cy="7.5" r="7.5" transform="translate(14090 3944)" fill="#707070"/>
    </g>
    <g transform="translate(-13970 -3764)">
      <circle id="Ellipse_726-30" data-name="Ellipse 726" cx="7.5" cy="7.5" r="7.5" transform="translate(14090 3944)" fill="#707070"/>
    </g>
    <g transform="translate(-13910 -3764)">
      <circle id="Ellipse_726-31" data-name="Ellipse 726" cx="7.5" cy="7.5" r="7.5" transform="translate(14090 3944)" fill="#707070"/>
    </g>
    <g transform="translate(-13850 -3764)">
      <circle id="Ellipse_726-32" data-name="Ellipse 726" cx="7.5" cy="7.5" r="7.5" transform="translate(14090 3944)" fill="#707070"/>
    </g>
    <g transform="translate(-13790 -3764)">
      <circle id="Ellipse_726-33" data-name="Ellipse 726" cx="7.5" cy="7.5" r="7.5" transform="translate(14090 3944)" fill="#707070"/>
    </g>
    <g transform="translate(-13730 -3764)">
      <circle id="Ellipse_726-34" data-name="Ellipse 726" cx="7.5" cy="7.5" r="7.5" transform="translate(14090 3944)" fill="#707070"/>
    </g>
    <g transform="translate(-13670 -3764)">
      <circle id="Ellipse_726-35" data-name="Ellipse 726" cx="7.5" cy="7.5" r="7.5" transform="translate(14090 3944)" fill="#707070"/>
    </g>
    <g transform="translate(-13610 -3764)">
      <circle id="Ellipse_726-36" data-name="Ellipse 726" cx="7.5" cy="7.5" r="7.5" transform="translate(14090 3944)" fill="#707070"/>
    </g>
    <g transform="translate(-14090 -3704)">
      <circle id="Ellipse_726-37" data-name="Ellipse 726" cx="7.5" cy="7.5" r="7.5" transform="translate(14090 3944)" fill="#707070"/>
    </g>
    <g transform="translate(-14030 -3704)">
      <circle id="Ellipse_726-38" data-name="Ellipse 726" cx="7.5" cy="7.5" r="7.5" transform="translate(14090 3944)" fill="#707070"/>
    </g>
    <g transform="translate(-13970 -3704)">
      <circle id="Ellipse_726-39" data-name="Ellipse 726" cx="7.5" cy="7.5" r="7.5" transform="translate(14090 3944)" fill="#707070"/>
    </g>
    <g transform="translate(-13910 -3704)">
      <circle id="Ellipse_726-40" data-name="Ellipse 726" cx="7.5" cy="7.5" r="7.5" transform="translate(14090 3944)" fill="#707070"/>
    </g>
    <g transform="translate(-13850 -3704)">
      <circle id="Ellipse_726-41" data-name="Ellipse 726" cx="7.5" cy="7.5" r="7.5" transform="translate(14090 3944)" fill="#707070"/>
    </g>
    <g transform="translate(-13790 -3704)">
      <circle id="Ellipse_726-42" data-name="Ellipse 726" cx="7.5" cy="7.5" r="7.5" transform="translate(14090 3944)" fill="#707070"/>
    </g>
    <g transform="translate(-13730 -3704)">
      <circle id="Ellipse_726-43" data-name="Ellipse 726" cx="7.5" cy="7.5" r="7.5" transform="translate(14090 3944)" fill="#707070"/>
    </g>
    <g transform="translate(-13670 -3704)">
      <circle id="Ellipse_726-44" data-name="Ellipse 726" cx="7.5" cy="7.5" r="7.5" transform="translate(14090 3944)" fill="#707070"/>
    </g>
    <g transform="translate(-13610 -3704)">
      <circle id="Ellipse_726-45" data-name="Ellipse 726" cx="7.5" cy="7.5" r="7.5" transform="translate(14090 3944)" fill="#707070"/>
    </g>
    <g transform="translate(-14090 -3644)">
      <circle id="Ellipse_726-46" data-name="Ellipse 726" cx="7.5" cy="7.5" r="7.5" transform="translate(14090 3944)" fill="#707070"/>
    </g>
    <g transform="translate(-14030 -3644)">
      <circle id="Ellipse_726-47" data-name="Ellipse 726" cx="7.5" cy="7.5" r="7.5" transform="translate(14090 3944)" fill="#707070"/>
    </g>
    <g transform="translate(-13970 -3644)">
      <circle id="Ellipse_726-48" data-name="Ellipse 726" cx="7.5" cy="7.5" r="7.5" transform="translate(14090 3944)" fill="#707070"/>
    </g>
    <g transform="translate(-13910 -3644)">
      <circle id="Ellipse_726-49" data-name="Ellipse 726" cx="7.5" cy="7.5" r="7.5" transform="translate(14090 3944)" fill="#707070"/>
    </g>
    <g transform="translate(-13850 -3644)">
      <circle id="Ellipse_726-50" data-name="Ellipse 726" cx="7.5" cy="7.5" r="7.5" transform="translate(14090 3944)" fill="#707070"/>
    </g>
    <g transform="translate(-13790 -3644)">
      <circle id="Ellipse_726-51" data-name="Ellipse 726" cx="7.5" cy="7.5" r="7.5" transform="translate(14090 3944)" fill="#707070"/>
    </g>
    <g transform="translate(-13730 -3644)">
      <circle id="Ellipse_726-52" data-name="Ellipse 726" cx="7.5" cy="7.5" r="7.5" transform="translate(14090 3944)" fill="#707070"/>
    </g>
    <g transform="translate(-13670 -3644)">
      <circle id="Ellipse_726-53" data-name="Ellipse 726" cx="7.5" cy="7.5" r="7.5" transform="translate(14090 3944)" fill="#707070"/>
    </g>
    <g transform="translate(-13610 -3644)">
      <circle id="Ellipse_726-54" data-name="Ellipse 726" cx="7.5" cy="7.5" r="7.5" transform="translate(14090 3944)" fill="#707070"/>
    </g>
    <g transform="translate(-14090 -3584)">
      <circle id="Ellipse_726-55" data-name="Ellipse 726" cx="7.5" cy="7.5" r="7.5" transform="translate(14090 3944)" fill="#707070"/>
    </g>
    <g transform="translate(-14030 -3584)">
      <circle id="Ellipse_726-56" data-name="Ellipse 726" cx="7.5" cy="7.5" r="7.5" transform="translate(14090 3944)" fill="#707070"/>
    </g>
    <g transform="translate(-13970 -3584)">
      <circle id="Ellipse_726-57" data-name="Ellipse 726" cx="7.5" cy="7.5" r="7.5" transform="translate(14090 3944)" fill="#707070"/>
    </g>
    <g transform="translate(-13910 -3584)">
      <circle id="Ellipse_726-58" data-name="Ellipse 726" cx="7.5" cy="7.5" r="7.5" transform="translate(14090 3944)" fill="#707070"/>
    </g>
    <g transform="translate(-13850 -3584)">
      <circle id="Ellipse_726-59" data-name="Ellipse 726" cx="7.5" cy="7.5" r="7.5" transform="translate(14090 3944)" fill="#707070"/>
    </g>
    <g transform="translate(-13790 -3584)">
      <circle id="Ellipse_726-60" data-name="Ellipse 726" cx="7.5" cy="7.5" r="7.5" transform="translate(14090 3944)" fill="#707070"/>
    </g>
    <g transform="translate(-13730 -3584)">
      <circle id="Ellipse_726-61" data-name="Ellipse 726" cx="7.5" cy="7.5" r="7.5" transform="translate(14090 3944)" fill="#707070"/>
    </g>
    <g transform="translate(-13670 -3584)">
      <circle id="Ellipse_726-62" data-name="Ellipse 726" cx="7.5" cy="7.5" r="7.5" transform="translate(14090 3944)" fill="#707070"/>
    </g>
    <g transform="translate(-13610 -3584)">
      <circle id="Ellipse_726-63" data-name="Ellipse 726" cx="7.5" cy="7.5" r="7.5" transform="translate(14090 3944)" fill="#707070"/>
    </g>
  </g>
</svg>
